<?xml version="1.0" encoding="UTF-8"?>
<svg version="1.1" viewBox="0 0 2000 2000" width="1280" height="1280" xmlns="http://www.w3.org/2000/svg">
<path transform="translate(480,487)" d="m0 0h1038l2 7 5 19 7 14 7 9 9 10 11 8 15 9 18 7 16 4 13 2 13 1 4 2v11l-4 4-10 6-5 5-4 8-1 3v15l4 9 5 6 12 8 1 2v6l-4 4-8 5-6 7-4 9v15l4 10 8 8 9 6 1 2v6l-11 8-5 5-4 6-2 6v15l4 10 7 7 11 7 1 2v6l-11 7-5 5-5 8-2 12 2 11 6 9 7 6 8 6 2 4-1 4-12 7-8 9-4 10v14l4 9 6 7 11 7 1 2v6l-12 9-7 8-3 8v14l4 11 5 5 8 6 5 5 1 6-10 7-8 7-3 6-1 5v13l3 10 7 8 12 6 1 2v12l-2 2-17 1-20 4-18 6-16 8-14 10-10 9-9 12-7 14-4 13-2 12-4 1h-1034l-2-2-2-14-4-12-8-15-9-11-10-9-15-10-17-8-16-5-16-3-18-1-1-2v-12l3-3 8-4 7-8 4-11v-11l-4-11-8-9-10-6-1-1v-6l5-5 9-6 7-9 2-6v-15l-4-10-3-3v-2l-4-2-10-6-1-2v-6l5-5 6-4 8-9 3-8v-15l-6-12-8-7-8-5v-7l4-4 9-6 7-9 3-11v-7l-4-10-4-6v-2l-4-2-11-7-1-1v-7l9-7 7-6 5-7 3-9v-7l-4-11-8-10-10-6-2-2v-6l5-5 8-6 6-7 4-8 1-10-4-12-7-9-12-7-1-2v-7l5-4 7-4 7-8 4-11v-10l-4-11-5-7-13-7-1-2v-11l4-3 20-2 25-6 18-8 14-9 11-9 8-9 5-7 7-15 4-14 1-10z" fill="#FDAB04"/>
<path transform="translate(624,758)" d="m0 0h45l16 4 6 4 7 8 3 6 1 6v124l-3 12-6 8-10 6-9 3-8 1h-39l-13-2-12-5-8-7-4-9-1-5v-126l2-9 6-9 9-6 10-3z" fill="#B32926"/>
<path transform="translate(1227,758)" d="m0 0h48l1 8 1 137h15l1-145h50v150l-2 10-5 10-9 7-13 4-9 1h-42l-12-2-12-5-7-6-4-9-1-5-1-88v-66z" fill="#B32926"/>
<path transform="translate(446,758)" d="m0 0h45l1 1 1 73h24l1-73 29-1h16l3 2v176l-1 3-11 1h-23l-12-1-1-1-1-70h-24v71l-3 1h-36l-9-1-1-1v-42l1-137z" fill="#B32926"/>
<path transform="translate(725,758)" d="m0 0h49v128l1 18 16-1v-144l1-1h48l1 1v151l-2 9-6 10-8 6-12 4-8 1h-46l-10-2-10-4-7-5-5-8-2-7-1-10z" fill="#B32926"/>
<path transform="translate(895,758)" d="m0 0h44l16 4 8 5 6 7 4 11 1 8v15l-2 7h-48l-1-1-1-19h-10l-1 1v36l32 1 14 3 9 6 6 10 2 9v51l-4 12-8 9-12 5-15 2h-38l-15-3-9-5-7-7-4-9-1-7v-24l1-1h49v17l1 2h12l-1-35-9-1-25-1-13-4-8-6-4-5-3-10-1-11v-33l1-14 4-10 6-7 10-5 6-2z" fill="#B32926"/>
<path transform="translate(1e3 758)" d="m0 0h91l1 1v34l-4 1h-44v37l39-1 1 1v35h-40v38h50l1 1v34l-1 1h-90l-9-1-1-1 1-179z" fill="#B32926"/>
<path transform="translate(1110,758)" d="m0 0h98v35l-4 1h-44v43h39l1 1v32l-39 1-1 68-1 1h-47l-2-2z" fill="#B32926"/>
<path transform="translate(1367,758)" d="m0 0h48l1 1 1 145h39l5 1v34l-1 1h-84l-9-1-1-1v-129z" fill="#B32926"/>
<path transform="translate(1473,758)" d="m0 0h49v145l1 1 44 1v34l-1 1h-91l-3-1v-65z" fill="#B32926"/>
<path transform="translate(640,794)" d="m0 0h11l1 1 1 13v93l-2 3h-12l-1-1-1-42v-46l1-19z" fill="#FEAC04"/>
<path transform="translate(1324,1244)" d="m0 0 7 1 6 4 7-4 6-1 5 3 4 5 1 4v35h-8l-1-33-1-6-9 1-2 3-1 34-1 1h-7l-1-34-3-5-9 1-1 38h-8l-1-44 1-2 12 1z" fill="#FCA904"/>
<path transform="translate(789,1225)" d="m0 0h8l1 1v23l-1 15 4-4 8-12 5-4h5l-1 5-8 13-2 4 1 5 8 14 3 4v3h-6l-5-4-10-15-2-1 1 3v11l-1 5-5 1-3-2z" fill="#FEAC04"/>
<path transform="translate(992,1229)" d="m0 0h28l1 1v5l-1 1h-20l-1 20h17l3 1v6l-5 1h-14v20l20 1 1 6-29 1-1-1v-61z" fill="#FDAB04"/>
<path transform="translate(1385,1244)" d="m0 0 9 1 6 5 3 6 1 13-1 2-21 1-3 2 3 9 4 2h7l5-2 4 1-1 6-6 2h-14l-5-3-5-8-1-4v-17l4-10 5-4zm-1 7-4 4-1 2v7l2 1h12l2-1-1-9-4-4z" fill="#FDAC04"/>
<path transform="translate(1113,1244)" d="m0 0 9 1 6 5 3 6 1 13-1 2-21 1-3 2 3 9 4 2h7l5-2 4 1-1 5-2 2-6 1h-13l-5-4-4-8-1-3v-17l4-9 5-5zm-1 7-4 4-1 2v7l1 1h13l2-1-1-9-4-4z" fill="#FDAC04"/>
<path transform="translate(840,1244)" d="m0 0 9 1 6 4 4 8 1 11-2 3-21 1-2 1 2 9 4 3h8l5-2h4v5l-3 3-4 1h-14l-6-4-4-8-2-9 1-11 4-9 5-5zm0 7-5 5v8l2 1h12l2-1-1-9-4-4z" fill="#FEAC04"/>
<path transform="translate(947,1244)" d="m0 0 9 1 5 3 4 5 3 10v11l-2 8-3 5-4 4-4 1h-11l-6-4-5-10-1-5v-8l4-13 4-5zm-1 7-4 6-1 5v13l2 7 6 4 6-1 3-4 1-3v-19l-3-6-3-2z" fill="#FDAC04"/>
<path transform="translate(1205,1245)" d="m0 0h15l6 4 1 2 1 9 1 30-4 2-5-2-6 2h-10l-5-4-2-4v-12l5-6 8-3 10-1-1-10-15 1-4 1-2-2 1-4zm7 24-6 3-2 4 1 7 3 2h7l5-3v-12l-1-1z" fill="#FDAC04"/>
<path transform="translate(586,1244)" d="m0 0 9 1 7 6 3 7 1 6v10l-2 8-4 6-4 3-3 1h-11l-6-4-4-7-1-4v-17l4-10 5-4zm0 7-5 4-2 9v12l3 8 5 2 5-1 4-4 1-3v-19l-3-6-4-2z" fill="#FEAC04"/>
<path transform="translate(617,1245)" d="m0 0h6l1 2 1 36 5 2 6-2 1-3 1-34 1-1h6l1 1 1 44-3 2-4-1-3-1-5 2h-8l-5-2-3-8v-36z" fill="#FEAC04"/>
<path transform="translate(561,1228)" d="m0 0 4 1-1 6-12 26-1 4-1 25-3 2-5-1-1-1-1-27-14-31v-3h7l5 8 7 16 3-3 7-16 4-5z" fill="#FEAC04"/>
<path transform="translate(1051,1244)" d="m0 0 6 2 3 3 2 7v35h-8l-1-36-1-2-4-1-7 3-1 36-7 1-1-1-1-44 1-2 11 1z" fill="#FDAA04"/>
<path transform="translate(1282,1244)" d="m0 0 7 1 5 6 1 2 1 37-1 1h-7l-1-1-1-35-3-3-6 1-3 3-1 34-1 1h-7l-1-44 1-2 6 1 4 1z" fill="#FEAC04"/>
<path transform="translate(1413,1245)" d="m0 0 6 1 4 1 4-2h9l5 4 2 5v37h-7l-1-1-1-35-3-3-7 1-2 3-1 12v20l-1 3h-7l-1-44z" fill="#FDAC04"/>
<path transform="translate(764,1244)" d="m0 0h7l7 3 1 5h-13l-5 2-2 4-1 14 2 9 3 3 7 1 9-1v5l-2 2-4 1h-13l-6-4-4-7-1-4v-17l4-10 5-4z" fill="#FEAC04"/>
<path transform="translate(913,1233)" d="m0 0 4 1 1 10h5l2 2-1 5-6 1 1 31 7 6-1 3h-8l-5-2-2-5-1-6-1-27-3-2v-4l5-2 1-9z" fill="#FDAC05"/>
<path transform="translate(874,1233)" d="m0 0 4 1 2 9 6 3 1 4-7 2v32l7 3 1 4h-13l-3-3-1-3-1-30-1-3-3-2 1-5 4-3 2-8z" fill="#FDAC04"/>
<path transform="translate(1080,1233)" d="m0 0 3 1 1 10 6 1 2 5-7 2-1 33 7 1 1 5-6 1-7-1-3-6-1-32-3-3 1-5 3-5 2-6z" fill="#F59D07"/>
<path transform="translate(1461,1233)" d="m0 0 4 1 1 10 6 1 1 5-7 2 1 32 7 3v4l-5 1-8-1-3-6-1-33-3-1-1-4 5-5 2-8z" fill="#FDAC05"/>
<path transform="translate(708,1233)" d="m0 0 3 1 2 10 6 2 1 4-7 2-1 33 7 1 2 4-1 1h-13l-2-2-1-4v-33l-4-2v-4l4-2 1-8z" fill="#FDAB04"/>
<path transform="translate(1176,1233)" d="m0 0 4 2 1 8 6 2 1 1v5l-7 2v27l1 4 6 3 1 4-4 1-9-1-3-6-1-33-3-1-1-4 3-3h2l1-9z" fill="#FEAC04"/>
<path transform="translate(1142,1245)" d="m0 0 5 1 1 1h5l2-2h8l1 6-12 3-1 2-1 35-5 1-3-1-1-44z" fill="#FDAC04"/>
<path transform="translate(661,1245)" d="m0 0 11 1 2-1h7v6l-12 4-1 36h-7l-1-1v-44z" fill="#F8A306"/>
<path transform="translate(1244,1244)" d="m0 0h5l1 1v46h-7l-1-1v-45z" fill="#FDAC04"/>
<path transform="translate(733,1244)" d="m0 0 4 1v46l-5 1-3-3v-43z" fill="#FEAC04"/>
<path transform="translate(1245,1229)" d="m0 0 5 1 1 1-1 7-6 1-2-2v-6z" fill="#FDAD07"/>
<path transform="translate(732,1229)" d="m0 0 5 1v9h-6l-2-2v-7z" fill="#FDAD07"/>
</svg>
